<?xml version="1.0" encoding="UTF-8"?>
<svg id="Layer_1" xmlns="http://www.w3.org/2000/svg" xmlns:xlink="http://www.w3.org/1999/xlink" version="1.1" viewBox="0 0 792 612">
  <!-- Generator: Adobe Illustrator 30.1.0, SVG Export Plug-In . SVG Version: 2.1.1 Build 136)  -->
  <defs>
    <style>
      .st0, .st1, .st2 {
        fill: none;
      }

      .st3 {
        font-size: 3.498px;
      }

      .st3, .st4, .st5, .st6 {
        font-family: HeavitasNeue-Black, 'Heavitas Neue';
        font-weight: 800;
      }

      .st3, .st5, .st6 {
        fill: #231f20;
      }

      .st1 {
        stroke-dasharray: 12.185 12.185;
      }

      .st1, .st2 {
        stroke: #000;
        stroke-miterlimit: 10;
        stroke-width: .5px;
      }

      .st7 {
        clip-path: url(#clippath-1);
      }

      .st8 {
        clip-path: url(#clippath-2);
      }

      .st4 {
        fill: #939598;
      }

      .st4, .st6 {
        font-size: 6px;
      }

      .st9 {
        fill: #fff;
      }

      .st10 {
        fill: #c3a881;
      }

      .st5 {
        font-size: 3px;
      }

      .st2 {
        stroke-dasharray: 12 12;
      }
    </style>
    <clipPath id="clippath-1">
      <rect class="st0" width="792" height="612"/>
    </clipPath>
    <clipPath id="clippath-2">
      <rect class="st0" width="792" height="612"/>
    </clipPath>
  </defs>
  <g class="st7">
    <rect class="st10" x="99.263" y="364.5" width="594" height="54"/>
    <path class="st9" d="M460.3115,375.257c-.962,2.547-3.271,9.087-3.785,14.408-.024.244-.042.478-.058.706,1.301.071,2.591.278,3.835.618,1.937.527,3.877,1.458,5.931,2.844,5.059,3.414,10.321,9.269,11.814,10.982l.378.435h.008l-18.123-29.993ZM465.4445,394.9c-.209-.14-.413-.273-.612-.4-.715,1.04-1.548,2.002-2.478,2.86-1.447,1.337-3.262,2.475-5.547,3.48-5.628,2.473-13.573,3.894-15.874,4.27l-.561.092-.015.026,36.284.021c-1.82-2.058-6.613-7.255-11.197-10.349M455.1625,389.546c-.231,2.39-.105,4.459.383,6.323.315,1.198.772,2.367,1.358,3.478-.215.102-.437.204-.669.306-5.087,2.235-12.177,3.597-14.97,4.075l18.136-29.978.02.032-.198.51c-.808,2.09-3.491,9.366-4.06,15.254M647.6335,401.868c.332-.105.514-.311.514-.639v-16.713c0-.477-.357-.716-1.067-.721h-4.537c-.713.005-1.072.244-1.072.721v16.713c0,.328.181.534.516.639h5.646ZM630.5225,401.868h5.645c.335-.105.518-.311.518-.639v-16.713c0-.477-.363-.716-1.075-.721h-4.532c-.713.005-1.072.244-1.072.721v16.713c0,.328.181.534.5161.639M652.9335,384.516v16.713c0,.328.183.534.5181.639h2.9059v1.725h-34.56v-1.725h2.907c.3329-.105.519-.311.519-.639v-16.713c0-.477-.362-.716-1.075-.721h-2.351v-1.72h34.56v1.72h-2.35c-.711.005-1.074.244-1.074.721M612.9305,400.465c-.218.147-.49.219-.821.219h-11.102v-13.084c0-.396.317-.592.946-.592v-.708h-5.957v.708c.709,0,1.064.196,1.064.592v14.697c0,.394-.355.59-1.064.59v.706h16.113c.331,0,.603.018.821.04.221.024.33.144.33.355h.736v-4.128h-.736c0,.262-.109.467-.33.605M586.8315,396.362l-3.337-6.599-2.917,6.599h6.254ZM594.1885,402.651c.162.103.338.185.532.236v.706h-5.8391v-.591c.1381,0,.282-.038.434-.115.149-.081.225-.221.225-.434,0-.156-.028-.301-.0811-.434-.0569-.13-.125-.296-.207-.51l-1.108-2.235h-8.799l-1.15,2.115c-.11.216-.202.406-.267.572-.071.174-.101.326-.101.454,0,.208.068.339.202.391.138.055.328.081.576.081v.706h-5.505v-.706c.331-.051.594-.204.798-.454.206-.251.363-.477.472-.687l6.125-12.771c.168-.369.298-.662.391-.886.098-.219.146-.434.146-.648,0-.159-.033-.258-.101-.293-.073-.044-.143-.085-.23-.14v-.708h6.212v.708c-.082.055-.174.091-.27.117-.096.028-.143.133-.143.316,0,.159.061.347.185.572.12.22.249.473.387.766l6.66,13.358c.137.24.287.409.456.514M568.2925,402.297v-13.089h5.346c.212,0,.423.049.614.159.191.103.286.273.286.511h.743v-4.524h-.743c0,.372-.095.62-.286.751-.191.132-.402.195-.614.195h-14.64c-.22,0-.427-.063-.617-.195-.19-.131-.286-.379-.286-.751h-.741v4.524h.741c0-.238.096-.408.286-.511.19-.11.397-.159.617-.159h5.345v13.089c0,.209-.069.358-.207.449-.139.093-.272.141-.4109.141v.706h5.302v-.706c-.492,0-.735-.196-.735-.59M549.3375,387.008c.439,0,.739.047.901.14.17.093.252.242.252.452v14.697c0,.209-.082.358-.252.449-.162.093-.462.141-.901.141v.706h6.248v-.706c-.765,0-1.147-.196-1.147-.59v-14.697c0-.396.382-.592,1.147-.592v-.708h-6.248v.708ZM543.8295,391.409c0-.809-.267-1.381-.802-1.712-.538-.325-1.199-.489-1.994-.489h-6.909v4.285h6.909c.795,0,1.456-.138,1.994-.412.535-.274.802-.829.802-1.672M547.7735,391.409c0,1.884-.551,3.195-1.663,3.911-1.108.721-2.774,1.084-4.995,1.084h-6.991v5.893c0,.394.288.59.867.59v.706h-5.836v-.706c.682,0,1.025-.196,1.025-.59v-14.697c0-.396-.343-.592-1.025-.592v-.708h11.96c2.221,0,3.887.381,4.995,1.141,1.1121.762,1.663,2.081,1.663,3.968M520.0295,396.362l-3.329-6.599-2.916,6.599h6.245ZM527.3915,402.651c.162.103.338.185.532.236v.706h-5.834v-.591c.134,0,.28-.038.429-.115.148-.081.225-.221.225-.434,0-.156-.023-.301-.0811-.434-.0569-.13-.125-.296-.207-.51l-1.108-2.235h-8.8l-1.148,2.115c-.109.216-.202.406-.268.572-.071.174-.101.326-.101.454,0,.208.063.339.202.391.138.055.331.081.579.081v.706h-5.508v-.706c.326-.051.591-.204.804-.454.2-.251.357-.477.467-.687l6.124-12.771c.164-.369.297-.662.391-.886.097-.219.146-.434.146-.648,0-.159-.0359-.258-.108-.293-.066-.044-.136-.085-.223-.14v-.708h6.212v.708c-.087.055-.175.091-.27.117-.096.028-.143.133-.143.316,0,.159.057.347.185.572.126.22.256.473.387.766l6.665,13.358c.134.24.287.409.451.514M501.8345,396.434l3.16,3.921-.685.457-.052-.057c-.152-.171-.34-.253-.566-.253-.065,0-.258.066-.801.506-.435.352-1.043.736-1.865,1.169-.798.422-1.83.804-3.06,1.127-1.227.328-2.749.493-4.515.493-1.962,0-3.783-.272-5.408-.805-1.624-.539-3.039-1.322-4.206-2.326-1.166-1.008-2.083-2.223-2.731-3.605-.65-1.385-.974-2.913-.974-4.551,0-1.37.305-2.692.913-3.929.603-1.236,1.485-2.344,2.623-3.298,1.14-.954,2.533-1.725,4.147-2.285,1.609-.564,3.449-.852,5.467-.852,1.4,0,2.669.117,3.755.344,1.08.228,2.046.476,2.865.749.799.261,1.475.51,2.003.743.629.276.91.331,1.035.331.27,0,.338-.05.352-.066.053-.062.126-.154.206-.257l.052-.063.643.406-.045.068-2.644,4.366-.73-.325.09-.087c.12-.12.183-.271.183-.462,0-.126-.101-.361-.598-.757-.406-.327-.966-.637-1.702-.953-.722-.302-1.579-.57-2.549-.797-.963-.223-2.019-.342-3.126-.342-1.106,0-2.237.155-3.359.457-1.117.303-2.125.778-2.995,1.409-.869.635-1.591,1.459-2.136,2.438-.548.982-.832,2.176-.832,3.544,0,1.183.286,2.284.852,3.266.564.979,1.322,1.844,2.263,2.557.941.712,2.024,1.271,3.228,1.672,1.208.392,2.464.591,3.733.591.999,0,1.957-.138,2.85-.415.904-.278,1.712-.619,2.4-1.018.69-.392,1.248-.803,1.658-1.207.404-.399.606-.725.606-.968,0-.219-.059-.389-.185-.504l-.075-.074.705-.416.05.058Z"/>
    <path class="st10" d="M277.5022,271.6665h-127.954c-1.057,0-1.913.857-1.913,1.914v63.127c0,1.057.856,1.913,1.913,1.913h5.704c1.057,0,1.914-.856,1.914-1.913v-21.657h112.718v21.657c0,1.057.857,1.913,1.914,1.913h5.704c1.057,0,1.913-.856,1.913-1.913l.001-63.127c0-1.057-.857-1.914-1.914-1.914"/>
    <path class="st10" d="M183.9057,223.4806v33.841c0,2.47,2.002,4.472,4.472,4.472h20.211l-1.1,3.291h-5.948c-2.469,0-4.471,2.002-4.471,4.472v2.11h32.911v-2.11c0-2.47-2.002-4.472-4.472-4.472h-5.947l-1.1-3.291h20.212c2.469,0,4.471-2.002,4.471-4.472v-33.841c0-2.469-2.002-4.471-4.471-4.471h-50.296c-2.47,0-4.472,2.002-4.472,4.471M192.0807,225.5926h42.891c.879,0,1.592.713,1.592,1.592v19.853c0,.879-.713,1.592-1.592,1.592h-42.891c-.879,0-1.592-.713-1.592-1.592v-19.853c0-.879.713-1.592,1.592-1.592"/>
    <path class="st10" d="M254.5038,271.6665h8.943v-3.614c0-1.639-1.329-2.968-2.968-2.968h-3.007c-1.639,0-2.968,1.329-2.968,2.968v3.614Z"/>
  </g>
  <g class="st8">
    <line class="st2" x1="684" x2="684" y2="612"/>
    <line class="st2" x1="108" x2="108" y2="612"/>
    <line class="st1" y1="198.001" x2="792" y2="198.001"/>
    <line class="st1" y1="414.001" x2="792" y2="414.001"/>
    <text class="st6" transform="translate(176.4917 194.3477)"><tspan x="0" y="0">CUT JUS</tspan></text>
    <text class="st6" transform="translate(204.3374 194.3477)"><tspan x="0" y="0">T</tspan></text>
    <text class="st6" transform="translate(210.1577 194.3477)"><tspan x="0" y="0" xml:space="preserve"> INSIDE OF THIS DO</tspan></text>
    <text class="st6" transform="translate(270.4155 194.3477)"><tspan x="0" y="0">TTED LINE: INTENDED CUT SIZE IS </tspan></text>
    <text class="st6" transform="translate(380.3594 194.3477)"><tspan x="0" y="0">~2.875</tspan></text>
    <text class="st6" transform="translate(399.6611 194.3477)"><tspan x="0" y="0"> </tspan></text>
    <text class="st3" transform="translate(401.1084 194.3457)"><tspan x="0" y="0">X </tspan></text>
    <text class="st6" transform="translate(404.6582 194.3477)"><tspan x="0" y="0">7.</tspan></text>
    <text class="st6" transform="translate(409.1826 194.3477)"><tspan x="0" y="0" xml:space="preserve">875” OR 2    </tspan></text>
    <text class="st3" transform="translate(444.5156 194.3457)"><tspan x="0" y="0">X </tspan></text>
    <text class="st6" transform="translate(448.0664 194.3477)"><tspan x="0" y="0">7</tspan></text>
    <text class="st5" transform="translate(439.3516 190.6855)"><tspan x="0" y="0">7</tspan></text>
    <text class="st5" transform="translate(439.3516 192.687)"><tspan x="0" y="0" xml:space="preserve"> /</tspan></text>
    <text class="st5" transform="translate(439.3516 194.6875)"><tspan x="0" y="0" xml:space="preserve">  </tspan></text>
    <text class="st5" transform="translate(440.791 194.6875)"><tspan x="0" y="0" xml:space="preserve"> 8</tspan></text>
    <text class="st5" transform="translate(452.4492 190.689)"><tspan x="0" y="0">7</tspan></text>
    <text class="st5" transform="translate(452.4492 192.6899)"><tspan x="0" y="0" xml:space="preserve"> /</tspan></text>
    <text class="st5" transform="translate(452.4492 194.6909)"><tspan x="0" y="0" xml:space="preserve">  </tspan></text>
    <text class="st5" transform="translate(453.8896 194.6909)"><tspan x="0" y="0" xml:space="preserve"> 8</tspan></text>
    <text class="st4" transform="translate(104.8813 382.8301) rotate(-90)"><tspan x="0" y="0">CUT INSIDE OF THIS DO</tspan></text>
    <text class="st4" transform="translate(104.8809 264.8887) rotate(-90)"><tspan x="0" y="0">TTED LIN</tspan></text>
    <text class="st4" transform="translate(104.8807 219.793) rotate(-90)"><tspan x="0" y="0">E</tspan></text>
    <text class="st4" transform="translate(104.8804 338.8262) rotate(-90)"><tspan x="0" y="0">CUT INSIDE OF THIS DO</tspan></text>
    <text class="st4" transform="translate(104.881 264.8828) rotate(-90)"><tspan x="0" y="0">TTED LIN</tspan></text>
    <text class="st4" transform="translate(104.8807 236.791) rotate(-90)"><tspan x="0" y="0">E</tspan></text>
  </g>
</svg>